<?xml version="1.0"?>
<svg xmlns="http://www.w3.org/2000/svg" xmlns:xlink="http://www.w3.org/1999/xlink" version="1.1" viewBox="0 0 172 172" width="50px" height="50px"><g fill="none" fill-rule="nonzero" stroke="none" stroke-width="1" stroke-linecap="butt" stroke-linejoin="miter" stroke-miterlimit="10" stroke-dasharray="" stroke-dashoffset="0" font-family="none" font-weight="none" font-size="none" text-anchor="none" style="mix-blend-mode: normal"><path d="M0,172v-172h172v172z" fill="none"/><g fill="#ffffff"><g id="surface1"><path d="M68.8,6.88c-9.48687,0 -17.2,7.71313 -17.2,17.2v17.2c0,1.89469 -1.54531,3.44 -3.44,3.44h-17.2c-7.43094,0 -13.545,5.99313 -13.62562,13.37031c-0.16125,15.14406 1.49156,29.73719 4.38062,39.0225c3.31906,10.57531 9.93031,17.42844 18.5975,19.29625l24.32188,5.53625c3.73562,0.79281 7.53844,0.04031 10.68281,-2.12313c3.14438,-2.16344 5.21375,-5.42875 5.83188,-9.51375l0.55094,-8.03562c3.95063,4.945 10.49469,7.80719 18.06,7.80719h10.32c7.59219,0 13.76,6.16781 13.76,13.76v10.32c0,5.68406 -4.63594,10.32 -10.32,10.32h-9.95719c-1.84094,0 -3.50719,-1.23625 -3.74906,-2.83531c-0.17469,-1.04812 0.09406,-2.0425 0.7525,-2.82187c0.65844,-0.77938 1.62594,-1.22281 2.63375,-1.22281h6.88c1.90813,0 3.44,-1.54531 3.44,-3.44v-13.76c0,-1.89469 -1.53187,-3.44 -3.44,-3.44h-10.32c-11.38156,0 -20.64,9.25844 -20.64,20.64v6.88c0,11.38156 9.25844,20.64 20.64,20.64h17.2c34.4,0 34.4,-48.79156 34.4,-72.24c0,-23.7575 -0.56437,-39.30469 -3.5475,-53.4275c-2.365,-11.15312 -9.09719,-17.71062 -20.18312,-19.48437c-0.90031,-0.09406 -20.51906,-2.08281 -31.86031,-2.66063c-1.90813,-5.6975 -8.42531,-10.4275 -15.25156,-10.4275zM46.27875,15.64125l-24.295,24.295c2.71438,-1.33031 5.76469,-2.09625 8.97625,-2.09625h13.76v-13.76c0,-2.96969 0.56438,-5.805 1.55875,-8.43875zM118.68,68.8c4.75688,0 8.6,3.85656 8.6,8.6c0,2.0425 -0.73906,3.88344 -1.92156,5.36156c-2.60687,-2.16344 -7.67281,-3.64156 -13.55844,-3.64156c-0.52406,0 -1.02125,0.04031 -1.51844,0.06719c-0.13438,-0.57781 -0.20156,-1.16906 -0.20156,-1.78719c0,-4.75687 3.84313,-8.6 8.6,-8.6z"/></g></g></g></svg>
