<svg xmlns="http://www.w3.org/2000/svg" width="35" height="36" viewBox="0 0 35 36">
  <path fill="#CB2027" d="M35.3,18 C35.3,21.1333333 34.5333333,24 33,26.6 C31.4666667,29.2 29.3666667,31.2666667 26.7,32.8 C24.0333333,34.3333333 21.1666667,35.1 18.1,35.1 C16.5,35.1 14.9,34.8666667 13.3,34.4 C14.1666667,33.0666667 14.7333333,31.8666667 15,30.8 C15.1333333,30.2666667 15.5333333,28.7 16.2,26.1 C16.5333333,26.6333333 17.1,27.1333333 17.9,27.6 C18.7,28.0666667 19.5333333,28.2666667 20.4,28.2 C22.2,28.2 23.8,27.7 25.2,26.7 C26.6,25.7 27.7,24.3 28.5,22.5 C29.3,20.7 29.7,18.6666667 29.7,16.4 C29.7,14.7333333 29.2333333,13.1666667 28.3,11.7 C27.3666667,10.2333333 26.1,9 24.5,8 C22.9,7 21,6.53333333 18.8,6.6 C17.2,6.6 15.7333333,6.83333333 14.4,7.3 C13.0666667,7.76666667 11.9333333,8.33333333 11,9 C10.0666667,9.66666667 9.23333333,10.4666667 8.5,11.4 C7.76666667,12.3333333 7.26666667,13.3 7,14.3 C6.73333333,15.3 6.6,16.3 6.6,17.3 C6.6,18.9 6.86666667,20.2666667 7.4,21.4 C7.93333333,22.5333333 8.83333333,23.3666667 10.1,23.9 C10.5,24.1 10.7666667,23.9333333 10.9,23.4 C10.9666667,23.3333333 11.0333333,23.1333333 11.1,22.8 C11.1666667,22.4666667 11.2333333,22.2333333 11.3,22.1 C11.3666667,21.7666667 11.2666667,21.4333333 11,21.1 C10.2666667,20.2333333 9.9,19.1333333 9.9,17.8 C9.9,15.5333333 10.6666667,13.6 12.2,12 C13.7333333,10.4 15.7666667,9.56666667 18.3,9.5 C20.5666667,9.5 22.3333333,10.1333333 23.6,11.4 C24.8666667,12.6666667 25.5,14.2333333 25.5,16.1 C25.5,18.6333333 24.9666667,20.8 23.9,22.6 C22.8333333,24.4 21.5333333,25.2666667 20,25.2 C19.1333333,25.2 18.4,24.9 17.8,24.3 C17.2,23.7 17.0333333,22.9 17.3,21.9 C17.4333333,21.3666667 17.6333333,20.6666667 17.9,19.8 C18.1666667,18.9333333 18.4,18.1666667 18.6,17.5 C18.8,16.8333333 18.8666667,16.3 18.8,15.9 C18.8,15.1 18.6,14.4666667 18.2,14 C17.8,13.5333333 17.2333333,13.3 16.5,13.3 C15.5666667,13.3 14.8,13.7 14.2,14.5 C13.6,15.3 13.2666667,16.3666667 13.2,17.7 C13.2,18.7666667 13.4,19.6666667 13.8,20.4 L11.6,29.8 C11.3333333,30.8 11.2333333,32.1 11.3,33.7 C8.23333333,32.3666667 5.73333333,30.2666667 3.8,27.4 C1.86666667,24.5333333 0.933333333,21.4 1,18 C1,14.8666667 1.76666667,12 3.3,9.4 C4.83333333,6.8 6.9,4.73333333 9.5,3.2 C12.1,1.66666667 14.9666667,0.9 18.1,0.9 C21.2333333,0.9 24.1,1.66666667 26.7,3.2 C29.3,4.73333333 31.4,6.8 33,9.4 C34.6,12 35.3666667,14.8666667 35.3,18 Z" transform="translate(-1)"/>
</svg>
