<svg xmlns="http://www.w3.org/2000/svg" xmlns:xlink="http://www.w3.org/1999/xlink" width="40" height="38" viewBox="0 0 40 38">
  <defs>
    <path id="reddit-white-a" d="M40,19.9 C40,20.7666667 39.7666667,21.5333333 39.3,22.2 C38.8333333,22.8666667 38.2666667,23.4333333 37.6,23.9 C37.7333333,24.5666667 37.8,25.2666667 37.8,26 C37.8,28.3333333 37.0333333,30.4666667 35.5,32.4 C33.9666667,34.3333333 31.8,35.9 29,37.1 C26.2,38.3 23.2,38.8666667 20,38.8 C16.8,38.7333333 13.8333333,38.1666667 11.1,37.1 C8.36666667,36.0333333 6.23333333,34.4666667 4.7,32.4 C3.16666667,30.3333333 2.36666667,28.2 2.3,26 C2.3,25.2666667 2.36666667,24.5666667 2.5,23.9 C1.76666667,23.5 1.16666667,22.9666667 0.7,22.3 C0.233333333,21.6333333 -4.4408921e-16,20.8333333 -4.4408921e-16,19.9 C-4.4408921e-16,18.7 0.433333333,17.6333333 1.3,16.7 C2.16666667,15.7666667 3.2,15.3333333 4.4,15.4 C5.66666667,15.4 6.76666667,15.8666667 7.7,16.8 C10.9,14.6 14.7333333,13.4 19.2,13.2 L21.8,1.6 C21.8,1.4 21.9,1.23333333 22.1,1.1 C22.3,0.966666667 22.5,0.933333333 22.7,1 L30.9,2.8 C31.1666667,2.26666667 31.5666667,1.83333333 32.1,1.5 C32.6333333,1.16666667 33.2333333,1 33.9,1 C34.8333333,1 35.6333333,1.33333333 36.3,2 C36.9666667,2.66666667 37.2666667,3.43333333 37.2,4.3 C37.1333333,5.16666667 36.8333333,5.96666667 36.3,6.7 C35.7666667,7.43333333 34.9666667,7.76666667 33.9,7.7 C32.8333333,7.63333333 32.0333333,7.3 31.5,6.7 C30.9666667,6.1 30.6666667,5.3 30.6,4.3 L23.1,2.7 L20.8,13.2 C25.2666667,13.3333333 29.1333333,14.5333333 32.4,16.8 C33.2666667,15.8666667 34.3333333,15.4 35.6,15.4 C36.8,15.4 37.8333333,15.8333333 38.7,16.7 C39.5666667,17.5666667 40,18.6333333 40,19.9 Z M9.3,24.3 C9.3,25.2333333 9.63333333,26.0333333 10.3,26.7 C10.9666667,27.3666667 11.7666667,27.7 12.7,27.7 C13.6333333,27.7 14.4,27.3666667 15,26.7 C15.6,26.0333333 15.9333333,25.2333333 16,24.3 C16.0666667,23.3666667 15.7333333,22.6 15,22 C14.2666667,21.4 13.5,21.0666667 12.7,21 C11.7666667,21 10.9666667,21.3333333 10.3,22 C9.63333333,22.6666667 9.3,23.4333333 9.3,24.3 Z M27.4,32.3 C27.6,32.1 27.7,31.9 27.7,31.7 C27.7,31.5 27.6,31.3 27.4,31.1 C27.2666667,30.9666667 27.1,30.9 26.9,30.9 C26.7,30.9 26.5,30.9666667 26.3,31.1 C25.7,31.7 24.8,32.1666667 23.6,32.5 C22.4,32.8333333 21.2,32.9666667 20,32.9 C18.8,32.8333333 17.6,32.7 16.4,32.5 C15.2,32.3 14.3,31.8333333 13.7,31.1 C13.5666667,30.9666667 13.4,30.9 13.2,30.9 C13,30.9 12.8,30.9666667 12.6,31.1 C12.4,31.2333333 12.3,31.4333333 12.3,31.7 C12.3,31.9666667 12.4,32.1666667 12.6,32.3 C13.2666667,32.9 14.1333333,33.4 15.2,33.8 C16.2666667,34.2 17.2,34.4 18,34.4 C18.8,34.4 19.4666667,34.4333333 20,34.5 C20.5333333,34.5666667 21.2,34.5333333 22,34.4 C22.8,34.2666667 23.7333333,34.0666667 24.8,33.8 C25.8666667,33.5333333 26.7333333,33 27.4,32.2 L27.4,32.3 Z M27.3,27.7 C28.2333333,27.7 29.0333333,27.3666667 29.7,26.7 C30.3666667,26.0333333 30.7,25.2333333 30.7,24.3 C30.7,23.4333333 30.3666667,22.6666667 29.7,22 C29.0333333,21.3333333 28.2333333,21 27.3,21 C26.4333333,21 25.6666667,21.3333333 25,22 C24.3333333,22.6666667 24,23.4333333 24,24.3 C24,25.1666667 24.3333333,25.9666667 25,26.7 C25.6666667,27.4333333 26.4333333,27.7666667 27.3,27.7 Z"/>
  </defs>
  <g fill="none" transform="translate(0 -1)">
    <use fill="#FFF" fill-rule="evenodd" xlink:href="#reddit-white-a"/>
    <use fill="#FF4500" fill-rule="evenodd" xlink:href="#reddit-white-a"/>
  </g>
</svg>
