<svg xmlns="http://www.w3.org/2000/svg" width="30" height="34" viewBox="0 0 30 34">
  <path fill="#95D03A" d="M25,23.8 C27.7,23.8 29.8,26 29.8,28.6 C29.8,31.2 27.7,33.6 25,33.6 C22.3,33.6 20.2,31.3 20.2,28.6 C20.2,28.3 20.2,27.9 20.2,27.5 L8.4,20.7 C7.5,21.5 6.3,22 5,22 C2.3,22 -5.32907052e-15,19.7 -5.32907052e-15,17 C-5.32907052e-15,14.3 2.3,12 5,12 C6.3,12 7.5,12.5 8.4,13.3 L20.2,6.5 C20.1,6.1 20,5.7 20,5.4 C20,2.6 22.3,0.4 25,0.4 C27.7,0.4 30,2.6 30,5.4 C30,8.2 27.7,10.4 25,10.4 C23.7,10.4 22.5,9.8 21.6,9 L9.8,15.8 C9.9,16.2 10,16.6 10,17 C10,17.4 9.9,17.8 9.8,18.2 L21.7,25 C22.6,24.3 23.8,23.8 25,23.8 Z"/>
</svg>
